<?xml version="1.0" standalone="no"?>
<!DOCTYPE svg PUBLIC "-//W3C//DTD SVG 20010904//EN"
 "http://www.w3.org/TR/2001/REC-SVG-20010904/DTD/svg10.dtd">
<svg version="1.0" xmlns="http://www.w3.org/2000/svg"
 width="150.000000pt" height="120.000000pt" viewBox="0 0 150.000000 120.000000"
 preserveAspectRatio="xMidYMid meet">
<metadata>
Created by potrace 1.15, written by Peter Selinger 2001-2017
</metadata>
<g transform="translate(0.000000,120.000000) scale(0.100000,-0.100000)"
fill="#000000" stroke="none">
<path d="M0 600 l0 -600 750 0 750 0 0 600 0 600 -750 0 -750 0 0 -600z m801
409 c55 -17 143 -100 184 -173 31 -56 35 -71 35 -137 -1 -60 -6 -85 -30 -134
-30 -64 -27 -85 15 -85 12 0 30 -9 40 -20 10 -11 23 -20 29 -20 7 0 28 -20 49
-44 20 -25 46 -47 57 -51 11 -3 20 -13 20 -21 0 -8 5 -14 10 -14 6 0 10 -22
10 -49 0 -67 -27 -101 -81 -101 -34 0 -46 7 -95 55 -30 31 -66 63 -80 71 -13
9 -24 22 -24 29 0 7 -7 15 -14 18 -8 3 -20 24 -26 46 -8 31 -16 41 -31 41 -26
0 -70 -30 -63 -42 3 -5 -2 -9 -12 -7 -11 1 -27 -1 -36 -6 -10 -4 -53 -6 -95
-4 -90 5 -158 33 -236 101 -56 47 -82 93 -95 168 -12 63 1 169 23 204 8 12 13
25 9 28 -14 15 123 128 175 144 48 16 214 17 262 3z"/>
<path d="M595 923 c-45 -7 -151 -86 -139 -105 3 -4 0 -8 -6 -8 -6 0 -8 -5 -5
-10 4 -6 1 -18 -7 -27 -17 -21 -17 -155 0 -161 7 -2 12 -12 12 -21 0 -10 20
-36 44 -59 36 -34 58 -45 112 -58 85 -19 129 -12 197 33 63 41 92 81 107 147
16 73 -3 138 -57 195 -24 25 -43 42 -43 38 0 -4 -9 1 -21 11 -31 30 -101 38
-194 25z"/>
</g>
</svg>
