<?xml version="1.0" encoding="iso-8859-1"?>
<!-- Generator: Adobe Illustrator 18.1.1, SVG Export Plug-In . SVG Version: 6.00 Build 0)  -->
<svg version="1.1" id="Capa_1" xmlns="http://www.w3.org/2000/svg" xmlns:xlink="http://www.w3.org/1999/xlink" x="0px" y="0px"
	 viewBox="0 0 519.085 519.085" style="enable-background:new 0 0 519.085 519.085;" xml:space="preserve">
<g>
	<g>
		<path style="fill:#010002;" d="M470.077,49.492C437.405,16.82,397.86,0.484,351.442,0.484c-46.419,0-86.163,16.336-119.232,49.008
			c-29.484,29.883-45.721,65.742-48.709,107.578s8.068,79.29,33.17,112.359l-26.297,25.699c-1.992-0.398-4.184-0.598-6.574-0.598
			c-20.32-2.395-38.449,4.582-54.387,20.918L21.237,423.027c-12.352,12.75-19.324,27.094-20.918,43.029
			c-1.594,15.938,2.789,28.986,13.148,39.146s23.508,14.543,39.445,13.145c15.937-1.395,30.082-8.268,42.434-20.619l108.176-108.174
			c13.945-13.941,20.918-29.684,20.918-47.215c0.797-4.781,0.797-9.762,0-14.939l25.102-25.104
			c32.672,25.104,70.125,36.357,112.359,33.77c42.231-2.59,78.293-18.824,108.176-48.711
			c32.672-33.067,49.008-72.811,49.008-119.229S502.749,82.164,470.077,49.492z M435.413,252.397
			c-23.109,23.31-51.103,34.964-83.971,34.964c-32.872,0-60.963-11.654-84.271-34.964c-23.309-23.309-34.963-51.397-34.963-84.27
			s11.654-60.861,34.963-83.971c23.31-23.11,51.397-34.664,84.271-34.664c32.869,0,60.859,11.555,83.971,34.664
			c23.106,23.109,34.664,51.1,34.664,83.971S458.521,229.088,435.413,252.397z"/>
	</g>
</g>
<g>
</g>
<g>
</g>
<g>
</g>
<g>
</g>
<g>
</g>
<g>
</g>
<g>
</g>
<g>
</g>
<g>
</g>
<g>
</g>
<g>
</g>
<g>
</g>
<g>
</g>
<g>
</g>
<g>
</g>
</svg>
